<?xml version="1.0" encoding="UTF-8" standalone="no"?>
<!-- Created with Inkscape (http://www.inkscape.org/) -->

<svg
   xmlns:dc="http://purl.org/dc/elements/1.1/"
   xmlns:cc="http://creativecommons.org/ns#"
   xmlns:rdf="http://www.w3.org/1999/02/22-rdf-syntax-ns#"
   xmlns:svg="http://www.w3.org/2000/svg"
   xmlns="http://www.w3.org/2000/svg"
   xmlns:sodipodi="http://sodipodi.sourceforge.net/DTD/sodipodi-0.dtd"
   xmlns:inkscape="http://www.inkscape.org/namespaces/inkscape"
   width="210mm"
   height="297mm"
   viewBox="0 0 210 297"
   version="1.1"
   id="svg1491"
   inkscape:version="0.92.4 5da689c313, 2019-01-14">
  <defs
     id="defs1485" />
  <sodipodi:namedview
     id="base"
     pagecolor="#ffffff"
     bordercolor="#666666"
     borderopacity="1.0"
     inkscape:pageopacity="0.0"
     inkscape:pageshadow="2"
     inkscape:zoom="0.35"
     inkscape:cx="188.83015"
     inkscape:cy="217.98756"
     inkscape:document-units="mm"
     inkscape:current-layer="layer1"
     showgrid="false"
     inkscape:window-width="1600"
     inkscape:window-height="829"
     inkscape:window-x="0"
     inkscape:window-y="29"
     inkscape:window-maximized="1" />
  <metadata
     id="metadata1488">
    <rdf:RDF>
      <cc:Work
         rdf:about="">
        <dc:format>image/svg+xml</dc:format>
        <dc:type
           rdf:resource="http://purl.org/dc/dcmitype/StillImage" />
        <dc:title></dc:title>
      </cc:Work>
    </rdf:RDF>
  </metadata>
  <g
     inkscape:label="Layer 1"
     inkscape:groupmode="layer"
     id="layer1">
    <path
       style="opacity:1;vector-effect:none;fill:#53b0eb;fill-opacity:1;stroke:none;stroke-width:37.79499817;stroke-linecap:butt;stroke-linejoin:miter;stroke-miterlimit:4;stroke-dasharray:none;stroke-dashoffset:0;stroke-opacity:1"
       d="M 395.68945 409.38867 L 371.4668 431.01758 C 364.80551 436.96525 354.60436 445.69716 343.53516 454.97656 C 332.46595 464.25597 320.5279 474.08146 310.39453 482.21289 C 307.742 484.34139 305.19533 486.5295 302.75195 488.76953 C 300.30857 491.00956 297.96829 493.30219 295.73242 495.64453 C 293.49655 497.98687 291.36397 500.37901 289.33398 502.81445 C 287.304 505.24989 285.37653 507.72872 283.55078 510.24805 C 281.72504 512.76737 280.00204 515.32593 278.37891 517.91992 C 276.75577 520.51391 275.23271 523.1433 273.81055 525.80273 C 272.38839 528.46217 271.06657 531.15152 269.84375 533.86719 C 268.62093 536.58286 267.49777 539.3252 266.47266 542.08789 C 265.44755 544.85058 264.52044 547.63506 263.69141 550.43555 C 262.86237 553.23603 262.13069 556.05179 261.49609 558.88086 C 260.8615 561.70993 260.32461 564.55195 259.88281 567.40039 C 259.44102 570.24883 259.09437 573.1043 258.84375 575.96289 C 258.59313 578.82148 258.43804 581.68345 258.37695 584.54297 C 258.31587 587.40249 258.34975 590.26009 258.47656 593.11133 C 258.60338 595.96256 258.82363 598.80689 259.13672 601.64062 C 259.4498 604.47436 259.8558 607.2965 260.35352 610.10352 C 260.85123 612.91054 261.44038 615.70157 262.12109 618.47266 C 262.80181 621.24374 263.57346 623.99477 264.43555 626.7207 C 265.29763 629.44664 266.2492 632.14874 267.29102 634.82031 C 268.33283 637.49188 269.46564 640.1342 270.68555 642.74219 C 271.90546 645.35018 273.213 647.9238 274.60938 650.45898 C 276.00575 652.99417 277.48935 655.49019 279.06055 657.94336 C 280.63175 660.39653 282.29076 662.80603 284.03516 665.16797 C 285.77955 667.52991 287.60943 669.84398 289.52539 672.10547 C 291.44135 674.36696 293.44341 676.57669 295.5293 678.72852 C 297.61518 680.88034 299.78489 682.97487 302.03906 685.00781 C 304.29324 687.04076 306.6319 689.01117 309.05273 690.91602 C 311.47357 692.82086 313.97665 694.6602 316.5625 696.42773 C 319.14835 698.19526 321.81716 699.89072 324.56641 701.51172 C 327.31565 703.13272 330.14564 704.67928 333.05664 706.14453 C 335.96764 707.60978 338.96013 708.99464 342.03125 710.29492 C 345.10237 711.59521 348.25282 712.80944 351.48242 713.93555 C 354.88348 715.12143 358.27929 716.17848 361.66602 717.10938 C 365.05274 718.04027 368.43037 718.84623 371.79492 719.5293 C 375.15947 720.21236 378.51117 720.77246 381.8457 721.21484 C 385.18024 721.65722 388.49824 721.98256 391.79492 722.19141 C 395.0916 722.40025 398.3662 722.49409 401.61719 722.47656 C 404.86818 722.45903 408.09551 722.32855 411.29297 722.0918 C 414.49042 721.85504 417.65884 721.51133 420.79492 721.0625 C 423.93101 720.61367 427.03469 720.06 430.10156 719.40625 C 433.16843 718.7525 436.19768 717.998 439.1875 717.14648 C 442.17732 716.29497 445.12632 715.34681 448.03125 714.30469 C 450.93618 713.26256 453.79717 712.12598 456.60938 710.90039 C 459.42158 709.6748 462.18485 708.36088 464.89648 706.95898 C 467.60812 705.55709 470.26787 704.0691 472.87109 702.49805 C 475.47432 700.92699 478.02083 699.27212 480.50781 697.53906 C 482.99479 695.80601 485.42226 693.99337 487.78516 692.10547 C 490.14805 690.21756 492.44676 688.25435 494.67773 686.21875 C 496.90871 684.18315 499.07286 682.07654 501.16406 679.90039 C 503.25527 677.72424 505.27319 675.47946 507.2168 673.16992 C 509.1604 670.86038 511.02825 668.48461 512.81641 666.04883 C 514.60457 663.61305 516.31457 661.11737 517.93945 658.5625 C 519.56433 656.00763 521.10484 653.39336 522.55859 650.72656 C 524.01235 648.05976 525.3795 645.33994 526.6543 642.56836 C 527.92909 639.79678 529.11122 636.97468 530.19922 634.10547 C 531.28722 631.23626 532.28047 628.31906 533.17383 625.35938 C 534.06719 622.39969 534.86185 619.39652 535.55273 616.35352 C 536.24362 613.31051 536.82998 610.22855 537.31055 607.10938 C 537.79111 603.9902 538.16533 600.83468 538.42773 597.64648 C 538.69014 594.45829 538.84054 591.23639 538.87695 587.98633 C 538.91337 584.73627 538.83609 581.45712 538.63867 578.15234 C 538.44125 574.84757 538.12464 571.51835 537.68555 568.16602 C 537.24645 564.81368 536.6847 561.43961 535.99609 558.04688 C 535.30748 554.65414 534.49088 551.2424 533.54492 547.81641 C 532.39786 543.66208 531.19392 539.81392 529.79688 536.12695 C 528.39983 532.43998 526.81132 528.91491 524.89453 525.4082 C 522.97774 521.9015 520.73364 518.41236 518.02734 514.79883 C 515.32105 511.1853 512.15229 507.44691 508.38672 503.43945 C 504.62114 499.432 500.25868 495.15526 495.16406 490.4668 C 490.06945 485.77833 484.24225 480.67806 477.54883 475.02148 C 470.85541 469.36491 463.29441 463.15201 454.73242 456.24023 C 446.17043 449.32846 436.60658 441.71774 425.90625 433.26367 L 395.68945 409.38867 z "
       id="path2092"
       transform="scale(0.26458333)" />
  </g>
</svg>
