<?xml version="1.0" encoding="UTF-8" standalone="no"?>
<!-- Created with Inkscape (http://www.inkscape.org/) -->

<svg
   xmlns:dc="http://purl.org/dc/elements/1.1/"
   xmlns:cc="http://creativecommons.org/ns#"
   xmlns:rdf="http://www.w3.org/1999/02/22-rdf-syntax-ns#"
   xmlns:svg="http://www.w3.org/2000/svg"
   xmlns="http://www.w3.org/2000/svg"
   xmlns:sodipodi="http://sodipodi.sourceforge.net/DTD/sodipodi-0.dtd"
   xmlns:inkscape="http://www.inkscape.org/namespaces/inkscape"
   width="210mm"
   height="297mm"
   viewBox="0 0 210 297"
   version="1.1"
   id="svg1491"
   inkscape:version="0.92.4 5da689c313, 2019-01-14"
   sodipodi:docname="drop.svg">
  <defs
     id="defs1485" />
  <sodipodi:namedview
     id="base"
     pagecolor="#ffffff"
     bordercolor="#666666"
     borderopacity="1.0"
     inkscape:pageopacity="0.0"
     inkscape:pageshadow="2"
     inkscape:zoom="0.35"
     inkscape:cx="531.68729"
     inkscape:cy="560.8447"
     inkscape:document-units="mm"
     inkscape:current-layer="layer1"
     showgrid="false"
     inkscape:window-width="1600"
     inkscape:window-height="829"
     inkscape:window-x="0"
     inkscape:window-y="29"
     inkscape:window-maximized="1" />
  <metadata
     id="metadata1488">
    <rdf:RDF>
      <cc:Work
         rdf:about="">
        <dc:format>image/svg+xml</dc:format>
        <dc:type
           rdf:resource="http://purl.org/dc/dcmitype/StillImage" />
        <dc:title></dc:title>
      </cc:Work>
    </rdf:RDF>
  </metadata>
  <g
     inkscape:label="Layer 1"
     inkscape:groupmode="layer"
     id="layer1">
    <path
       style="opacity:1;vector-effect:none;fill:#53b0eb;fill-opacity:1;stroke:none;stroke-width:9.99992657;stroke-linecap:butt;stroke-linejoin:miter;stroke-miterlimit:4;stroke-dasharray:none;stroke-dashoffset:0;stroke-opacity:1"
       d="M 29.179539,82.951894 V 198.83939 H 184.75454 V 82.951894 Z m 76.496111,14.17743 7.99486,6.316926 c 2.83113,2.2368 5.36156,4.25048 7.62692,6.07922 2.26536,1.82874 4.26588,3.47256 6.03685,4.9692 1.77097,1.49663 3.31275,2.84608 4.66069,4.08658 1.34796,1.24048 2.50219,2.37203 3.4985,3.43234 0.99631,1.0603 1.83471,2.04942 2.55075,3.0055 0.71604,0.95608 1.30979,1.87926 1.81694,2.80707 0.50715,0.92782 0.92744,1.86049 1.29708,2.836 0.36963,0.97552 0.68818,1.99366 0.99167,3.09284 0.25028,0.90646 0.46634,1.80914 0.64854,2.70681 0.18219,0.89766 0.33082,1.79037 0.447,2.67735 0.11618,0.88697 0.19998,1.76783 0.25218,2.64222 0.0522,0.87439 0.073,1.74199 0.063,2.60191 -0.01,0.85991 -0.0495,1.71236 -0.11886,2.55591 -0.0694,0.84354 -0.16844,1.67845 -0.29559,2.50373 -0.12715,0.82527 -0.28229,1.64071 -0.46509,2.44584 -0.18279,0.80512 -0.39306,1.59971 -0.62942,2.3828 -0.23637,0.78308 -0.49916,1.55492 -0.78703,2.31407 -0.28786,0.75914 -0.60065,1.50582 -0.93793,2.23914 -0.33729,0.73331 -0.69901,1.45294 -1.08365,2.15853 -0.38464,0.70559 -0.79223,1.39727 -1.22215,2.07325 -0.42991,0.67599 -0.88235,1.33629 -1.35547,1.98076 -0.47312,0.64446 -0.96732,1.27306 -1.48156,1.88412 -0.51425,0.61108 -1.04816,1.205 -1.60146,1.78077 -0.55329,0.57578 -1.12589,1.13316 -1.71617,1.67174 -0.59028,0.53859 -1.19848,1.05802 -1.82366,1.55753 -0.62518,0.4995 -1.26745,0.97909 -1.92547,1.43763 -0.65801,0.45854 -1.33177,0.8964 -2.02054,1.31207 -0.68877,0.41568 -1.3925,0.80937 -2.10995,1.18029 -0.71746,0.37092 -1.44857,0.71856 -2.19263,1.04283 -0.74408,0.32427 -1.50104,0.62499 -2.26963,0.90072 -0.7686,0.27573 -1.54885,0.5266 -2.33991,0.75189 -0.79106,0.2253 -1.59255,0.42493 -2.40399,0.5979 -0.81144,0.17296 -1.63262,0.31945 -2.46238,0.43821 -0.82976,0.11875 -1.66807,0.20974 -2.51406,0.27234 -0.84599,0.0626 -1.69989,0.0968 -2.56005,0.1018 -0.86016,0.005 -1.72656,-0.0202 -2.59881,-0.0755 -0.87224,-0.0553 -1.75013,-0.14133 -2.6324,-0.25838 -0.88226,-0.11704 -1.76906,-0.26525 -2.659275,-0.44597 -0.890205,-0.18073 -1.783864,-0.39397 -2.679934,-0.64027 -0.89607,-0.2463 -1.79455,-0.52598 -2.694411,-0.83974 -0.854498,-0.29795 -1.688063,-0.61922 -2.500622,-0.96325 -0.81257,-0.34404 -1.604322,-0.71044 -2.374532,-1.09812 -0.770199,-0.38768 -1.518973,-0.79688 -2.246373,-1.22577 -0.727411,-0.42889 -1.433531,-0.87748 -2.117701,-1.34514 -0.684171,-0.46766 -1.346449,-0.95431 -1.986958,-1.4583 -0.640511,-0.50399 -1.259281,-1.02534 -1.855703,-1.56322 -0.596418,-0.53788 -1.170484,-1.09205 -1.722374,-1.66139 -0.551889,-0.56934 -1.081603,-1.15399 -1.588534,-1.75235 -0.506928,-0.59835 -0.991095,-1.21062 -1.452623,-1.83555 -0.461542,-0.62493 -0.900489,-1.26245 -1.316199,-1.91151 -0.415721,-0.64907 -0.808247,-1.30947 -1.177706,-1.98024 -0.369461,-0.67076 -0.715409,-1.35171 -1.03818,-2.04174 -0.32277,-0.69003 -0.622495,-1.38914 -0.898136,-2.09599 -0.275651,-0.70685 -0.52742,-1.42178 -0.755509,-2.14302 -0.2281,-0.72124 -0.432256,-1.44912 -0.612365,-2.1823 -0.180113,-0.73319 -0.335984,-1.47165 -0.467673,-2.21433 -0.131691,-0.74269 -0.239143,-1.48939 -0.321945,-2.23915 -0.08286,-0.74975 -0.141165,-1.50231 -0.174667,-2.2567 -0.0334,-0.75439 -0.04255,-1.51047 -0.02635,-2.26705 0.01617,-0.75659 0.0572,-1.5138 0.123505,-2.27015 0.06631,-0.75634 0.15803,-1.51185 0.274917,-2.26549 0.116891,-0.75365 0.258948,-1.50561 0.42685,-2.25413 0.16791,-0.74853 0.361492,-1.49352 0.580843,-2.23448 0.21935,-0.74096 0.464642,-1.4777 0.735872,-2.20866 0.27123,-0.73095 0.568394,-1.45654 0.891934,-2.17506 0.32353,-0.71852 0.673269,-1.43008 1.049549,-2.13372 0.37628,-0.70364 0.779251,-1.39934 1.208712,-2.08566 0.429451,-0.68633 0.88533,-1.36328 1.368391,-2.02985 0.48306,-0.66657 0.993039,-1.32242 1.530141,-1.9668 0.537099,-0.64437 1.101338,-1.2773 1.692918,-1.89704 0.591571,-0.61974 1.210773,-1.22634 1.857253,-1.81901 0.64647,-0.59267 1.320279,-1.17161 2.022097,-1.73478 2.68112,-2.15144 5.839737,-4.7511 8.768458,-7.20628 2.928728,-2.45517 5.627775,-4.7655 7.390245,-6.33915 z"
       id="rect821"
       inkscape:connector-curvature="0" />
  </g>
</svg>
