<?xml version="1.0" encoding="UTF-8" standalone="no"?>
<!-- Created with Inkscape (http://www.inkscape.org/) -->

<svg
   xmlns:dc="http://purl.org/dc/elements/1.1/"
   xmlns:cc="http://creativecommons.org/ns#"
   xmlns:rdf="http://www.w3.org/1999/02/22-rdf-syntax-ns#"
   xmlns:svg="http://www.w3.org/2000/svg"
   xmlns="http://www.w3.org/2000/svg"
   xmlns:sodipodi="http://sodipodi.sourceforge.net/DTD/sodipodi-0.dtd"
   xmlns:inkscape="http://www.inkscape.org/namespaces/inkscape"
   width="210mm"
   height="297mm"
   viewBox="0 0 210 297"
   version="1.1"
   id="svg1491"
   inkscape:version="0.92.4 5da689c313, 2019-01-14"
   sodipodi:docname="drop.svg"
   inkscape:export-filename="/home/sanduhrs/Workspace/drupal/drupalde3/web/profiles/lcd/themes/drupal_business/screenshot.png"
   inkscape:export-xdpi="96"
   inkscape:export-ydpi="96">
  <defs
     id="defs1485" />
  <sodipodi:namedview
     id="base"
     pagecolor="#ffffff"
     bordercolor="#666666"
     borderopacity="1.0"
     inkscape:pageopacity="0.0"
     inkscape:pageshadow="2"
     inkscape:zoom="0.35"
     inkscape:cx="531.68729"
     inkscape:cy="560.8447"
     inkscape:document-units="mm"
     inkscape:current-layer="layer1"
     showgrid="false"
     inkscape:window-width="1600"
     inkscape:window-height="829"
     inkscape:window-x="0"
     inkscape:window-y="29"
     inkscape:window-maximized="1" />
  <metadata
     id="metadata1488">
    <rdf:RDF>
      <cc:Work
         rdf:about="">
        <dc:format>image/svg+xml</dc:format>
        <dc:type
           rdf:resource="http://purl.org/dc/dcmitype/StillImage" />
        <dc:title></dc:title>
      </cc:Work>
    </rdf:RDF>
  </metadata>
  <g
     inkscape:label="Layer 1"
     inkscape:groupmode="layer"
     id="layer1">
    <path
       style="opacity:1;vector-effect:none;fill:#0678be;fill-opacity:1;stroke:none;stroke-width:37.79499817;stroke-linecap:butt;stroke-linejoin:miter;stroke-miterlimit:4;stroke-dasharray:none;stroke-dashoffset:0;stroke-opacity:1"
       d="M 101.71484 310.66211 L 101.71484 748.66211 L 689.71484 748.66211 L 689.71484 310.66211 L 101.71484 310.66211 z M 392.92969 384.33398 C 393.27888 385.65149 393.67912 386.96062 394.12695 388.26172 C 394.57479 389.56282 395.07055 390.85652 395.61133 392.14258 C 396.15214 393.42868 396.73723 394.70606 397.36523 395.97852 C 397.99324 397.25093 398.66359 398.51721 399.37305 399.77734 C 400.08258 401.03751 400.83199 402.29173 401.61719 403.54102 C 402.40242 404.79026 403.22293 406.03563 404.07812 407.27539 C 404.93336 408.51511 405.8227 409.75079 406.74219 410.98242 C 407.66167 412.21402 408.61185 413.44118 409.58984 414.66602 C 410.56783 415.89088 411.57468 417.11257 412.60547 418.33203 C 413.63622 419.5515 414.69169 420.76895 415.76953 421.98438 C 416.84734 423.19983 417.94729 424.4141 419.06641 425.62695 C 420.18552 426.83977 421.32383 428.05015 422.47852 429.26172 C 424.78792 431.68485 427.16284 434.10682 429.58008 436.5332 C 431.99731 438.95958 434.45637 441.39136 436.93555 443.83203 C 440.61703 447.51333 444.36202 451.25689 448.0957 455.08789 C 449.96253 457.00339 451.82527 458.94032 453.67773 460.90234 C 455.53019 462.86433 457.37168 464.85262 459.19141 466.86719 C 461.01117 468.88179 462.80934 470.92287 464.57812 472.99609 C 466.34691 475.06935 468.08569 477.17457 469.78516 479.3125 C 471.48462 481.45047 473.14592 483.62136 474.75781 485.83008 C 475.56376 486.93449 476.3561 488.04868 477.13672 489.17188 C 477.9173 490.29508 478.68642 491.42753 479.43945 492.57031 C 480.19241 493.71313 480.92924 494.86615 481.65234 496.0293 C 482.37544 497.19241 483.08449 498.36459 483.77539 499.54883 C 484.46629 500.73307 485.14048 501.92868 485.79688 503.13477 C 486.4533 504.34089 487.09132 505.55838 487.71094 506.78711 C 488.33059 508.01583 488.93115 509.25569 489.51172 510.50781 C 490.09233 511.75989 490.65214 513.02455 491.19141 514.30078 C 491.73067 515.57701 492.24853 516.86484 492.74414 518.16602 C 493.23975 519.46712 493.71437 520.78062 494.16406 522.10742 C 494.61375 523.43419 495.03991 524.77377 495.44141 526.12695 C 495.84287 527.48018 496.21919 528.84812 496.57031 530.22852 C 496.92132 531.60887 497.24672 533.00187 497.54492 534.41016 C 497.84313 535.81845 498.1144 537.24076 498.35742 538.67773 C 498.6006 540.11471 498.81405 541.56678 499 543.0332 C 499.18584 544.49962 499.34251 545.9819 499.46875 547.47852 C 499.59499 548.97521 499.69161 550.4861 499.75586 552.01367 C 499.81898 553.54128 499.85352 555.08521 499.85352 556.64453 C 499.85352 558.48459 499.80549 560.3131 499.71289 562.13086 C 499.62029 563.94862 499.48214 565.75567 499.29883 567.54883 C 499.11575 569.34202 498.88856 571.12231 498.61719 572.88867 C 498.34593 574.65496 498.03099 576.40731 497.67383 578.14453 C 497.31666 579.88172 496.91733 581.60278 496.47656 583.30859 C 496.03583 585.01433 495.55335 586.70481 495.03125 588.37695 C 494.50918 590.04905 493.94684 591.70365 493.3457 593.33984 C 492.74453 594.976 492.10372 596.59342 491.42578 598.19141 C 490.74785 599.78935 490.03375 601.36828 489.28125 602.92578 C 488.52875 604.48329 487.73879 606.01848 486.91406 607.5332 C 486.08929 609.04796 485.22871 610.54201 484.33398 612.01172 C 483.43926 613.48143 482.51128 614.92722 481.54883 616.34961 C 480.58637 617.77207 479.59038 619.17009 478.5625 620.54297 C 477.53462 621.91584 476.47389 623.26293 475.38281 624.58398 C 474.2917 625.90504 473.16958 627.19986 472.01758 628.4668 C 470.86562 629.73377 469.68328 630.97301 468.47266 632.18359 C 467.26204 633.39418 466.02283 634.57659 464.75586 635.72852 C 463.48885 636.88048 462.19414 638.00268 460.87305 639.09375 C 459.55195 640.18479 458.20494 641.24556 456.83203 642.27344 C 455.45908 643.30128 454.06117 644.29539 452.63867 645.25781 C 451.21617 646.22023 449.76865 647.15027 448.29883 648.04492 C 446.82905 648.93961 445.33706 649.80027 443.82227 650.625 C 442.30747 651.44969 440.77047 652.23781 439.21289 652.99023 C 437.65535 653.7427 436.07654 654.45878 434.47852 655.13672 C 432.88049 655.81465 431.26319 656.45551 429.62695 657.05664 C 427.99068 657.65774 426.33624 658.22012 424.66406 658.74219 C 422.99185 659.26425 421.30152 659.74482 419.5957 660.18555 C 417.88981 660.62628 416.1689 661.02565 414.43164 661.38281 C 412.69438 661.7399 410.94019 662.0548 409.17383 662.32617 C 407.40743 662.59743 405.62726 662.82646 403.83398 663.00977 C 402.04071 663.19303 400.23577 663.33123 398.41797 663.42383 C 396.60009 663.51643 394.76986 663.5625 392.92969 663.5625 C 391.08955 663.5625 389.25925 663.51643 387.44141 663.42383 C 385.62353 663.33127 383.81866 663.19307 382.02539 663.00977 C 380.23216 662.82665 378.45194 662.59754 376.68555 662.32617 C 374.91915 662.05495 373.16696 661.73998 371.42969 661.38281 C 369.69243 661.02568 367.96952 660.62628 366.26367 660.18555 C 364.5578 659.74482 362.8675 659.26425 361.19531 658.74219 C 359.52312 658.22012 357.86867 657.65774 356.23242 657.05664 C 354.59616 656.45551 352.9789 655.81465 351.38086 655.13672 C 349.78283 654.45878 348.20404 653.7427 346.64648 652.99023 C 345.08894 652.23781 343.55191 651.44969 342.03711 650.625 C 340.5223 649.80027 339.03033 648.93961 337.56055 648.04492 C 336.09076 647.15027 334.64319 646.22023 333.2207 645.25781 C 331.79822 644.29539 330.40027 643.30128 329.02734 642.27344 C 327.65441 641.24556 326.30744 640.18479 324.98633 639.09375 C 323.66523 638.00268 322.37052 636.88048 321.10352 635.72852 C 319.83652 634.57659 318.59735 633.39418 317.38672 632.18359 C 316.17609 630.97301 314.99379 629.73377 313.8418 628.4668 C 312.68982 627.19986 311.56763 625.90504 310.47656 624.58398 C 309.38548 623.26293 308.32477 621.91584 307.29688 620.54297 C 306.26898 619.17009 305.273 617.77207 304.31055 616.34961 C 303.34809 614.92722 302.42012 613.48143 301.52539 612.01172 C 300.63065 610.54201 299.77005 609.04796 298.94531 607.5332 C 298.12057 606.01848 297.33062 604.48329 296.57812 602.92578 C 295.82566 601.36828 295.11154 599.78935 294.43359 598.19141 C 293.75562 596.59342 293.11482 594.976 292.51367 593.33984 C 291.91252 591.70365 291.3502 590.04905 290.82812 588.37695 C 290.30604 586.70481 289.82356 585.01433 289.38281 583.30859 C 288.94207 581.60278 288.54267 579.88172 288.18555 578.14453 C 287.82842 576.40731 287.51344 574.65496 287.24219 572.88867 C 286.97094 571.12231 286.74366 569.34202 286.56055 567.54883 C 286.37746 565.75567 286.2392 563.94862 286.14648 562.13086 C 286.05381 560.3131 286.00586 558.48459 286.00586 556.64453 C 286.00586 555.08521 286.0393 553.54128 286.10352 552.01367 C 286.16777 550.4861 286.26446 548.97521 286.39062 547.47852 C 286.51679 545.9819 286.67361 544.49962 286.85938 543.0332 C 287.04518 541.56678 287.25882 540.11471 287.50195 538.67773 C 287.74509 537.24076 288.01625 535.81845 288.31445 534.41016 C 288.61266 533.00187 288.93806 531.60887 289.28906 530.22852 C 289.64007 528.84812 290.01649 527.48018 290.41797 526.12695 C 290.81946 524.77377 291.24562 523.43419 291.69531 522.10742 C 292.14501 520.78062 292.61964 519.46712 293.11523 518.16602 C 293.61085 516.86484 294.12872 515.57701 294.66797 514.30078 C 295.20721 513.02455 295.76706 511.75989 296.34766 510.50781 C 296.92823 509.25569 297.52879 508.01583 298.14844 506.78711 C 298.76808 505.55838 299.40611 504.34089 300.0625 503.13477 C 300.71891 501.92868 301.39309 500.73307 302.08398 499.54883 C 302.77487 498.36459 303.48396 497.19241 304.20703 496.0293 C 304.93013 494.86615 305.66692 493.71313 306.41992 492.57031 C 307.1729 491.42753 307.94204 490.29507 308.72266 489.17188 C 309.50326 488.04868 310.29563 486.93449 311.10156 485.83008 C 312.71344 483.62136 314.37475 481.45047 316.07422 479.3125 C 317.77369 477.17457 319.51248 475.06935 321.28125 472.99609 C 323.05002 470.92287 324.84821 468.88179 326.66797 466.86719 C 328.48774 464.85262 330.32919 462.86433 332.18164 460.90234 C 334.0341 458.94032 335.89682 457.00339 337.76367 455.08789 C 341.49737 451.25689 345.24236 447.51333 348.92383 443.83203 C 351.36458 441.39136 353.79669 438.96004 356.19336 436.5332 C 358.59005 434.10637 360.95101 431.68361 363.25391 429.25977 C 365.5568 426.83592 367.80154 424.41015 369.96094 421.97852 C 371.04063 420.76268 372.09833 419.54598 373.13281 418.32617 C 374.16731 417.10637 375.17708 415.88529 376.16016 414.66016 C 377.14325 413.43502 378.09994 412.20643 379.02539 410.97461 C 379.95085 409.74282 380.84545 408.50741 381.70703 407.26758 C 382.56865 406.02774 383.39791 404.78241 384.18945 403.5332 C 384.981 402.28399 385.7359 401.02947 386.45117 399.76953 C 387.16645 398.50959 387.8418 397.24469 388.47461 395.97266 C 389.10738 394.70062 389.69617 393.42217 390.24023 392.13672 C 390.78434 390.85126 391.28323 389.55805 391.73242 388.25781 C 392.18158 386.95758 392.58159 385.65036 392.92969 384.33398 z "
       id="rect821"
       transform="scale(0.26458333)" />
  </g>
</svg>
