<?xml version="1.0" encoding="UTF-8" standalone="no"?>
<!-- Created with Inkscape (http://www.inkscape.org/) -->

<svg
   xmlns:dc="http://purl.org/dc/elements/1.1/"
   xmlns:cc="http://creativecommons.org/ns#"
   xmlns:rdf="http://www.w3.org/1999/02/22-rdf-syntax-ns#"
   xmlns:svg="http://www.w3.org/2000/svg"
   xmlns="http://www.w3.org/2000/svg"
   xmlns:sodipodi="http://sodipodi.sourceforge.net/DTD/sodipodi-0.dtd"
   xmlns:inkscape="http://www.inkscape.org/namespaces/inkscape"
   version="1.1"
   id="svg2"
   width="42"
   height="50"
   viewBox="0 0 42 50"
   sodipodi:docname="logo.png"
   inkscape:version="0.92.4 5da689c313, 2019-01-14">
  <metadata
     id="metadata8">
    <rdf:RDF>
      <cc:Work
         rdf:about="">
        <dc:format>image/svg+xml</dc:format>
        <dc:type
           rdf:resource="http://purl.org/dc/dcmitype/StillImage" />
        <dc:title></dc:title>
      </cc:Work>
    </rdf:RDF>
  </metadata>
  <defs
     id="defs6" />
  <sodipodi:namedview
     pagecolor="#ffffff"
     bordercolor="#666666"
     borderopacity="1"
     objecttolerance="10"
     gridtolerance="10"
     guidetolerance="10"
     inkscape:pageopacity="0"
     inkscape:pageshadow="2"
     inkscape:window-width="1600"
     inkscape:window-height="829"
     id="namedview4"
     showgrid="false"
     inkscape:zoom="9.44"
     inkscape:cx="20.015394"
     inkscape:cy="29.936195"
     inkscape:window-x="0"
     inkscape:window-y="29"
     inkscape:window-maximized="1"
     inkscape:current-layer="svg2" />
  <g
     id="g817">
    <path
       style="fill:#f8fcfe"
       d="m 13,7.6224447 c 0,-0.2076554 0.7875,-0.9951554 1.75,-1.75 C 16.336056,4.6285741 16.371426,4.6639444 15.127555,6.25 13.821186,7.915748 13,8.4454789 13,7.6224447 Z"
       id="path821"
       inkscape:connector-curvature="0" />
    <path
       style="fill:#5ac2fe"
       d="M 12.5,47.338367 C 5.2129143,43.496717 0.90673416,36.743914 0.84725265,29.064931 0.79503547,22.323763 3.2347957,18.3096 12.75,9.4812179 L 21,1.8267157 l 8.25,7.65648 C 39.003508,18.535018 40.901669,21.66668 40.958084,28.79966 41.022,36.880892 37.062781,43.367535 29.789838,47.097318 25.233962,49.433707 16.700253,49.552681 12.5,47.338367 Z M 29.959192,41.380884 C 34.089761,37.905239 36,33.990127 36,29 36,23.403369 34.195507,20.40828 27.077842,14.19104 L 21,8.8820804 14.922158,14.19104 C 7.804493,20.40828 6,23.403369 6,29 6,33.990127 7.9102387,37.905239 12.040808,41.380884 14.621977,43.552795 16.15173,44 21,44 c 4.84827,0 6.378023,-0.447205 8.959192,-2.619116 z"
       id="path819"
       inkscape:connector-curvature="0" />
  </g>
</svg>
