<?xml version="1.0" encoding="UTF-8" standalone="no"?>
<svg
   xmlns:dc="http://purl.org/dc/elements/1.1/"
   xmlns:cc="http://creativecommons.org/ns#"
   xmlns:rdf="http://www.w3.org/1999/02/22-rdf-syntax-ns#"
   xmlns:svg="http://www.w3.org/2000/svg"
   xmlns="http://www.w3.org/2000/svg"
   id="svg846"
   version="1.1"
   viewBox="0 0 210 297"
   height="297mm"
   width="210mm">
  <defs
     id="defs840" />
  <metadata
     id="metadata843">
    <rdf:RDF>
      <cc:Work
         rdf:about="">
        <dc:format>image/svg+xml</dc:format>
        <dc:type
           rdf:resource="http://purl.org/dc/dcmitype/StillImage" />
        <dc:title></dc:title>
      </cc:Work>
    </rdf:RDF>
  </metadata>
  <g
     id="layer1">
    <path
       id="path829"
       d="m 104.99999,11.935498 c -0.34176,1.292697 -0.73479,2.577307 -1.17587,3.854155 -0.4411,1.276853 -0.9301,2.546051 -1.46441,3.808391 -0.5343,1.262333 -1.1138,2.517626 -1.73521,3.766774 -0.62141,1.249147 -1.284912,2.492043 -1.987326,3.729328 -0.702405,1.237282 -1.443726,2.468945 -2.221055,3.695691 -0.777302,1.226747 -1.590603,2.448682 -2.436724,3.666218 -0.846113,1.217535 -1.724887,2.430906 -2.633683,3.640558 -0.908817,1.209653 -1.847581,2.415619 -2.812986,3.618713 -0.965398,1.203092 -1.957637,2.403166 -2.97353,3.601027 -1.015881,1.197864 -2.055421,2.39355 -3.115697,3.587504 -2.120557,2.387916 -4.323626,4.769101 -6.585101,7.149353 -2.261476,2.380251 -4.581411,4.759565 -6.934999,7.142763 -2.353569,2.383196 -4.740998,4.770278 -7.137847,7.167032 -3.615255,3.615107 -7.291991,7.29204 -10.95854,11.054135 -1.833273,1.881049 -3.663938,3.783255 -5.48308,5.70998 -1.819137,1.926725 -3.626683,3.877949 -5.413723,5.8563 -1.787028,1.978373 -3.553668,3.984034 -5.290622,6.01998 -1.736953,2.03596 -3.444167,4.10218 -5.113073,6.20168 -1.668904,2.09951 -3.299257,4.23239 -4.882141,6.40139 -0.791439,1.08453 -1.570988,2.17799 -2.337551,3.281 -0.76657,1.10298 -1.520445,2.21525 -2.259878,3.33748 -0.73946,1.12223 -1.464501,2.25423 -2.17459,3.39645 -0.710069,1.14221 -1.404906,2.29454 -2.083362,3.45747 -0.67847,1.16295 -1.340641,2.33653 -1.98525,3.52093 -0.64459,1.18441 -1.271667,2.37984 -1.88016,3.58647 -0.608502,1.20662 -1.198375,2.4245 -1.768507,3.65408 -0.5701516,1.22959 -1.1207356,2.47084 -1.6502763,3.72412 -0.5295472,1.25329 -1.0380374,2.51852 -1.5247392,3.79627 -0.4866813,1.27773 -0.9516887,2.56786 -1.3932969,3.87079 -0.4416082,1.30292 -0.8599918,2.61856 -1.2542651,3.94742 -0.39426,1.32889 -0.7642754,2.67096 -1.108966,4.02651 -0.3446838,1.35553 -0.663875,2.72466 -0.9567148,4.10763 -0.2928597,1.38296 -0.5594955,2.77972 -0.7982565,4.19086 -0.2387811,1.41114 -0.4497075,2.83679 -0.6321687,4.27684 -0.182441,1.44005 -0.33626906,2.89452 -0.46016226,4.36421 -0.12387308,1.46975 -0.21781128,2.95464 -0.28087517,4.45475 C 0.03227679,178.09987 0,179.61512 0,181.14638 c 0,1.80699 0.04630142,3.60382 0.13730719,5.38889 0.0910326,1.78507 0.22695749,3.5586 0.40676133,5.31953 0.17981724,1.76094 0.40323832,3.50905 0.66960568,5.24361 0.2663875,1.73453 0.5755133,3.45545 0.9262163,5.1614 0.3507232,1.70596 0.7430773,3.39719 1.1758949,5.07232 0.4328176,1.67509 0.9062799,3.33418 1.4189708,4.97625 0.5126841,1.64203 1.0647715,3.26684 1.6551081,4.8736 0.5903362,1.60674 1.2189148,3.1955 1.8846957,4.76473 0.665754,1.56922 1.3686898,3.11908 2.107628,4.64856 0.738963,1.5295 1.51378,3.03833 2.323686,4.52582 0.809906,1.4875 1.654847,2.95355 2.533492,4.39684 0.878635,1.44328 1.790845,2.86404 2.735985,4.26088 0.94514,1.39686 1.9232,2.76986 2.932611,4.11805 1.009411,1.34818 2.050482,2.67129 3.121944,3.96859 1.071448,1.29729 2.17308,2.56872 3.304337,3.81288 1.131278,1.24417 2.291995,2.46112 3.480853,3.64993 1.18886,1.1888 2.405855,2.34948 3.650069,3.48071 1.244219,1.13122 2.515703,2.23313 3.813042,3.30456 1.297352,1.07141 2.620526,2.11242 3.968764,3.12181 1.348237,1.00936 2.721637,1.98703 4.118538,2.93214 1.396906,0.94511 2.817387,1.85763 4.260737,2.73622 1.443348,0.8786 2.909439,1.72314 4.396997,2.53304 1.487557,0.80988 2.996815,1.58503 4.526346,2.32393 1.529545,0.73892 3.079474,1.44183 4.648757,2.10756 1.569303,0.66573 3.157756,1.29429 4.764589,1.8846 1.606814,0.59031 3.232041,1.14238 4.874158,1.65506 1.642109,0.51268 3.301264,0.98576 4.976449,1.41856 1.675173,0.4328 3.366139,0.82514 5.072153,1.17586 1.706026,0.35068 3.427003,0.65979 5.161629,0.92616 1.734631,0.26636 3.483161,0.4901 5.244157,0.66992 1.761008,0.17981 3.534606,0.31574 5.319756,0.40674 1.785153,0.0911 3.581693,0.13697 5.388753,0.13697 1.80707,0 3.60362,-0.046 5.38878,-0.13697 1.78514,-0.091 3.55874,-0.22693 5.31974,-0.40674 1.76101,-0.17982 3.50954,-0.40356 5.24416,-0.66992 1.73461,-0.26637 3.45561,-0.57548 5.16162,-0.92616 1.70603,-0.35072 3.39697,-0.74306 5.07217,-1.17586 1.67516,-0.4328 3.33433,-0.90588 4.97645,-1.41856 1.64211,-0.51268 3.26733,-1.06475 4.87416,-1.65506 1.60681,-0.59031 3.19528,-1.21887 4.76457,-1.8846 1.56929,-0.66573 3.11922,-1.36864 4.64875,-2.10756 1.52955,-0.7389 3.0388,-1.51405 4.52636,-2.32393 1.48756,-0.8099 2.95366,-1.65444 4.397,-2.53304 1.44336,-0.87859 2.86381,-1.79111 4.26074,-2.73622 1.39691,-0.94511 2.7703,-1.92278 4.11855,-2.93214 1.34822,-1.00939 2.6714,-2.0504 3.96873,-3.12181 1.29736,-1.07143 2.56885,-2.17334 3.81306,-3.30456 1.24421,-1.13123 2.46122,-2.29191 3.65007,-3.48071 1.18885,-1.18881 2.34958,-2.40576 3.48085,-3.64993 1.13127,-1.24416 2.23287,-2.51559 3.30434,-3.81288 1.07144,-1.2973 2.11253,-2.62041 3.12195,-3.96859 1.0094,-1.34819 1.98746,-2.72119 2.93259,-4.11805 0.94514,-1.39684 1.85736,-2.8176 2.73599,-4.26088 0.87864,-1.44329 1.72357,-2.90934 2.53348,-4.39684 0.80991,-1.48749 1.58475,-2.99632 2.32369,-4.52582 0.73897,-1.52948 1.4419,-3.07934 2.10765,-4.64856 0.66575,-1.56923 1.29435,-3.15799 1.88469,-4.76473 0.59033,-1.60676 1.14241,-3.23157 1.65511,-4.8736 0.51269,-1.64207 0.98615,-3.30116 1.41897,-4.97625 0.43282,-1.67513 0.82517,-3.36636 1.1759,-5.07232 0.3507,-1.70595 0.65982,-3.42687 0.92621,-5.1614 0.26637,-1.73456 0.48979,-3.48267 0.66959,-5.24361 0.17982,-1.76093 0.31574,-3.53446 0.40677,-5.31953 0.091,-1.78507 0.13732,-3.5819 0.13732,-5.38889 0,-1.53126 -0.0323,-3.04651 -0.0954,-4.54663 -0.0631,-1.50011 -0.15701,-2.985 -0.28089,-4.45475 -0.12388,-1.46969 -0.27769,-2.92416 -0.46014,-4.36421 -0.18246,-1.44005 -0.39339,-2.8657 -0.63217,-4.27684 -0.23879,-1.41114 -0.5054,-2.8079 -0.79826,-4.19086 -0.29285,-1.38297 -0.61205,-2.7521 -0.95674,-4.10763 -0.34468,-1.35555 -0.71469,-2.69762 -1.10896,-4.02651 -0.39425,-1.32886 -0.81263,-2.6445 -1.25425,-3.94742 -0.44159,-1.30293 -0.90661,-2.59306 -1.3933,-3.87079 -0.4867,-1.27775 -0.99518,-2.54298 -1.52474,-3.79627 -0.52955,-1.25328 -1.08012,-2.49453 -1.65027,-3.72412 -0.57014,-1.22958 -1.16001,-2.44746 -1.7685,-3.65408 -0.6085,-1.20663 -1.23557,-2.40206 -1.88017,-3.58647 -0.6446,-1.1844 -1.30677,-2.35798 -1.98524,-3.52093 -0.67848,-1.16293 -1.37329,-2.31526 -2.08338,-3.45747 -0.71007,-1.14222 -1.43513,-2.27422 -2.17457,-3.39645 -0.73946,-1.12223 -1.49331,-2.2345 -2.25988,-3.33748 -0.76657,-1.10301 -1.54612,-2.19647 -2.33756,-3.281 -1.5829,-2.169 -3.21324,-4.30188 -4.88213,-6.40139 -1.66891,-2.0995 -3.37613,-4.16572 -5.11309,-6.20168 -1.73695,-2.035946 -3.50359,-4.041607 -5.29063,-6.01998 -1.78701,-1.978351 -3.59458,-3.929575 -5.41371,-5.8563 -1.81914,-1.926725 -3.64981,-3.828931 -5.48309,-5.70998 -3.66653,-3.762095 -7.34326,-7.439028 -10.95851,-11.054135 -2.4346,-2.396754 -4.8501,-4.783593 -7.22386,-7.16634 -2.37376,-2.382747 -4.70599,-4.761123 -6.97383,-7.140682 -1.13394,-1.189777 -2.25182,-2.37985 -3.35082,-3.57086 -1.09899,-1.191011 -2.17897,-2.383164 -3.2374,-3.576755 -1.05845,-1.193593 -2.09516,-2.38859 -3.10739,-3.586119 -1.01224,-1.197529 -1.99994,-2.397518 -2.96035,-3.600336 -0.9604,-1.202816 -1.89339,-2.408561 -2.79633,-3.618019 -0.90294,-1.209457 -1.77583,-2.422762 -2.61566,-3.64021 -0.83984,-1.217448 -1.64692,-2.439077 -2.41801,-3.665871 -0.7711,-1.226794 -1.50628,-2.458548 -2.20302,-3.696039 -0.69671,-1.23749 -1.355,-2.480826 -1.9717,-3.730368 -0.61671,-1.24954 -1.19201,-2.505219 -1.72309,-3.768162 -0.53107,-1.262943 -1.01766,-2.533115 -1.45746,-3.810813 -0.43979,-1.277699 -0.83264,-2.563129 -1.17555,-3.856933 z"
       style="opacity:1;vector-effect:none;fill:#0678be;fill-opacity:1;stroke:none;stroke-width:9.99992752;stroke-linecap:butt;stroke-linejoin:miter;stroke-miterlimit:4;stroke-dasharray:none;stroke-dashoffset:0;stroke-opacity:1" />
  </g>
</svg>
